Coordinates
version=1
nRows=12
nColumns=34
inDegrees=yes

Units are S.I. units (second, meters, Newtons, ...)
If the header above contains a line with 'inDegrees', this indicates whether rotational values are in degrees (yes) or radians (no).

endheader
time	pelvis_tilt	pelvis_list	pelvis_rotation	pelvis_tx	pelvis_ty	pelvis_tz	hip_flexion_r	hip_adduction_r	hip_rotation_r	knee_angle_r	ankle_angle_r	subtalar_angle_r	mtp_angle_r	hip_flexion_l	hip_adduction_l	hip_rotation_l	knee_angle_l	ankle_angle_l	subtalar_angle_l	mtp_angle_l	lumbar_extension	lumbar_bending	lumbar_rotation	arm_flex_r	arm_add_r	arm_rot_r	elbow_flex_r	pro_sup_r	arm_flex_l	arm_add_l	arm_rot_l	elbow_flex_l	pro_sup_l
      4.56666670	     -6.00762464	      0.31121058	     -1.57026395	      0.74003496	      1.10121750	     -0.04001127	      0.49068783	      0.92057410	    -17.12569519	      3.82183082	    -42.63389450	      2.81646157	      0.00000000	      3.86198604	     -0.89102123	     -4.55352917	      1.90417493	    -43.62296736	      8.14951346	      0.00000000	      3.53195904	     -3.16861139	      1.45370214	    -20.65675660	    -10.02326284	     10.47272567	     34.37616310	     79.40983028	     -4.96143611	    -12.27785539	     31.83847089	     16.19610823	     73.68366717
      4.58333330	     -5.76030821	      0.35401990	     -1.65847026	      0.73671176	      1.09106294	     -0.03905280	      0.14056136	      0.80514607	    -16.93144722	      4.50495585	    -41.58687310	      2.73806065	      0.00000000	      3.28247926	     -1.07820061	     -4.77516607	      2.26383667	    -43.13273253	      7.33393021	      0.00000000	      4.16769361	     -3.10498857	      1.64328051	    -19.12379484	     -9.49148725	     10.25628486	     34.67735537	     79.15572304	     -5.71010842	    -12.08764462	     32.09900284	     15.91859636	     73.38193534
      4.60000000	     -5.52433675	      0.72159605	     -1.36035432	      0.73403949	      1.07745186	     -0.03880203	     -0.27545899	      0.36938790	    -16.49908481	      4.72203501	    -39.31140400	      3.10996372	      0.00000000	      2.85993389	     -0.91983904	     -5.14146265	      2.72562298	    -43.53302005	      6.34009872	      0.00000000	      4.76158829	     -3.65867535	      0.77335917	    -17.54648627	     -8.57780088	     10.98744820	     33.10278528	     71.85536597	     -7.10486717	    -12.79835473	     36.98830496	     17.50987190	     59.58179068
      4.61666670	     -5.55695472	      0.83967256	     -0.95433061	      0.73439461	      1.05698163	     -0.03966688	     -0.42451133	      0.16392370	    -16.21958076	      5.13871335	    -36.72762178	      3.49457100	      0.00000000	      2.54743832	     -0.96459890	     -5.79951803	      3.09361342	    -43.60605058	      5.19269011	      0.00000000	      5.54434182	     -3.77402116	      0.23341120	    -17.88748801	     -8.40318252	     11.06427713	     35.05601307	     71.87725590	     -7.90207200	    -12.81887468	     37.43268417	     17.29191160	     59.26184443
      4.63333330	     -5.18541878	      0.94563637	     -0.71414504	      0.73403540	      1.03233938	     -0.03942515	     -0.94992853	     -0.04900159	    -16.67492680	      5.80907544	    -35.83558181	      2.75701118	      0.00000000	      1.89894789	     -0.93570313	     -6.88988068	      3.80046022	    -43.59664153	      4.02806430	      0.00000000	      5.83576336	     -3.88716653	      0.27266336	    -17.89066071	     -7.89062623	     11.10362458	     35.32342438	     71.86942787	     -8.69312013	    -12.80027733	     37.54950830	     17.28603128	     59.20272074
      4.65000000	     -5.04691223	      1.39520940	     -0.57858633	      0.73272360	      1.00851323	     -0.03927255	     -1.38853494	     -0.62555759	    -16.61298728	      6.22812151	    -34.84595786	      2.85293926	      0.00000000	      1.31602714	     -0.35005633	     -7.39658734	      3.98534831	    -44.75964494	      1.40429783	      0.00000000	      6.45477347	     -4.26791808	     -0.42263851	    -18.31175696	     -7.75446633	     10.35508600	     37.51639917	     71.71510301	    -10.09200735	    -13.44744519	     37.54328687	     19.68922605	     58.39030457
      4.66666670	     -4.64254264	      1.15081819	     -0.61577436	      0.72968016	      0.98165187	     -0.04001684	     -1.53148125	     -0.27378870	    -17.53931057	      7.04524544	    -34.83871031	      1.75498273	      0.00000000	      0.62241007	     -0.39371942	     -8.57637627	      4.56990796	    -44.16998949	      0.37291720	      0.00000000	      6.63888201	     -3.82468725	     -0.57484820	    -18.12174300	     -7.67789201	     10.19317998	     37.82682381	     71.69056127	    -10.56947814	    -13.30880798	     37.53078824	     19.92588478	     58.26969660
      4.68333330	     -3.61604280	      1.32491092	     -0.68316491	      0.72371863	      0.94727592	     -0.04075093	     -2.13167486	     -0.46499722	    -16.75558288	      8.19697993	    -35.24542681	     -0.90152298	      0.00000000	     -0.11201965	      0.18822353	     -8.76910224	      6.20364314	    -42.55460587	     -2.32668423	      0.00000000	      5.81791368	     -3.89434109	     -1.31789725	    -17.59009913	     -7.63468623	      9.78035427	     39.15305674	     71.65826637	    -11.26929585	    -13.52491163	     37.08093700	     21.56160408	     57.71126148
      4.70000000	     -2.72241570	      1.42821173	     -0.54285242	      0.71975563	      0.92102586	     -0.04314638	     -2.26652845	     -0.87891551	    -15.71432721	     10.90854882	    -32.00882019	     -2.76629943	      0.00000000	     -0.46756736	      0.62200140	     -8.28192419	      8.63272300	    -39.37299332	     -4.36247560	      0.00000000	      5.11707230	     -3.84282788	     -1.61646657	    -17.21196962	     -7.52578384	      9.67391696	     39.29006013	     71.65157981	    -10.94392613	    -13.55178286	     36.83097484	     22.18099760	     57.50175592
      4.71666670	     -0.89267083	      1.63428177	     -0.53615884	      0.71485205	      0.89659779	     -0.04397802	     -2.72669639	     -1.33433918	    -13.62736889	     15.79538264	    -24.66667610	     -6.74817981	      0.00000000	     -0.70472857	      1.20888741	     -7.05454199	     14.61261192	    -31.68394262	     -8.72689189	      0.00000000	      2.90359525	     -4.04240346	     -2.10468599	    -16.59592206	     -7.41029894	      9.52877672	     39.25980344	     71.63052684	    -10.23253073	    -13.40771847	     36.62709280	     22.59908369	     57.34355766
      4.73333330	      0.90669179	      1.60124568	     -0.53069010	      0.70522422	      0.87347828	     -0.04346853	     -2.65893860	     -0.99435531	    -10.50074566	     21.37187575	    -12.93385377	    -11.56568861	      0.00000000	      0.12299646	      1.31560498	     -6.00425283	     22.30986872	    -19.40712507	    -12.28055717	      0.00000000	      0.29225184	     -3.90728001	     -2.57190828	    -15.06362336	     -7.19629850	      9.25862536	     38.09527453	     71.58836175	     -8.97663772	    -13.22168171	     36.02185333	     23.07970865	     56.96439326
      4.75000000	      2.61028842	      1.32644339	     -0.66892712	      0.69838121	      0.84549780	     -0.04434660	     -2.40461909	     -0.34679221	     -7.77910663	     26.94568593	     -1.82405791	    -15.97400054	      0.00000000	      0.69325789	      1.00931543	     -5.38632402	     29.05856577	     -6.87422199	    -13.95695255	      0.00000000	     -2.66233132	     -3.48277263	     -2.83515901	    -13.17205142	     -6.79835608	      9.18291221	     35.40292670	     71.53774346	     -7.12658037	    -12.74676290	     35.15447120	     22.78318844	     56.63304171
